<mxfile host="app.diagrams.net" modified="2023-06-18T04:44:15.085Z" agent="Mozilla/5.0 (Windows NT 10.0; Win64; x64) AppleWebKit/537.36 (KHTML, like Gecko) Chrome/113.0.0.0 Safari/537.36 OPR/99.0.0.0" etag="HQt7iTKSzhN_zs361USH" version="21.4.0" type="github">
  <diagram name="PÃ¡gina-1" id="pd_PAibqinBxvo0NQsCU">
    <mxGraphModel dx="756" dy="441" grid="1" gridSize="10" guides="1" tooltips="1" connect="1" arrows="1" fold="1" page="1" pageScale="1" pageWidth="827" pageHeight="1169" math="0" shadow="0">
      <root>
        <mxCell id="0" />
        <mxCell id="1" parent="0" />
        <mxCell id="QeHRjrzxPXp_8afaxTIw-2" value="quadroKaban" style="swimlane;fontStyle=1;align=center;verticalAlign=top;childLayout=stackLayout;horizontal=1;startSize=26;horizontalStack=0;resizeParent=1;resizeParentMax=0;resizeLast=0;collapsible=1;marginBottom=0;whiteSpace=wrap;html=1;" vertex="1" parent="1">
          <mxGeometry x="480" y="60" width="250" height="114" as="geometry" />
        </mxCell>
        <mxCell id="QeHRjrzxPXp_8afaxTIw-3" value="- tarefas: vector&amp;lt;tarefa&amp;gt;&lt;br&gt;- tarefasConcluidas: vector&amp;lt;tarefa&amp;gt;&lt;br&gt;- tarefasEmAndamento: vector&amp;lt;tarefa&amp;gt;" style="text;strokeColor=none;fillColor=none;align=left;verticalAlign=top;spacingLeft=4;spacingRight=4;overflow=hidden;rotatable=0;points=[[0,0.5],[1,0.5]];portConstraint=eastwest;whiteSpace=wrap;html=1;" vertex="1" parent="QeHRjrzxPXp_8afaxTIw-2">
          <mxGeometry y="26" width="250" height="54" as="geometry" />
        </mxCell>
        <mxCell id="QeHRjrzxPXp_8afaxTIw-4" value="" style="line;strokeWidth=1;fillColor=none;align=left;verticalAlign=middle;spacingTop=-1;spacingLeft=3;spacingRight=3;rotatable=0;labelPosition=right;points=[];portConstraint=eastwest;strokeColor=inherit;" vertex="1" parent="QeHRjrzxPXp_8afaxTIw-2">
          <mxGeometry y="80" width="250" height="8" as="geometry" />
        </mxCell>
        <mxCell id="QeHRjrzxPXp_8afaxTIw-5" value="+ quadroKaban()" style="text;strokeColor=none;fillColor=none;align=left;verticalAlign=top;spacingLeft=4;spacingRight=4;overflow=hidden;rotatable=0;points=[[0,0.5],[1,0.5]];portConstraint=eastwest;whiteSpace=wrap;html=1;" vertex="1" parent="QeHRjrzxPXp_8afaxTIw-2">
          <mxGeometry y="88" width="250" height="26" as="geometry" />
        </mxCell>
        <mxCell id="QeHRjrzxPXp_8afaxTIw-6" value="tarefa" style="swimlane;fontStyle=1;align=center;verticalAlign=top;childLayout=stackLayout;horizontal=1;startSize=30;horizontalStack=0;resizeParent=1;resizeParentMax=0;resizeLast=0;collapsible=1;marginBottom=0;whiteSpace=wrap;html=1;" vertex="1" parent="1">
          <mxGeometry x="50" y="40" width="220" height="200" as="geometry" />
        </mxCell>
        <mxCell id="QeHRjrzxPXp_8afaxTIw-7" value="- nome: string&lt;br&gt;- descricao: string&lt;br&gt;- data: string&lt;br&gt;- hora: string&lt;br&gt;- prioridade: int" style="text;strokeColor=none;fillColor=none;align=left;verticalAlign=top;spacingLeft=4;spacingRight=4;overflow=hidden;rotatable=0;points=[[0,0.5],[1,0.5]];portConstraint=eastwest;whiteSpace=wrap;html=1;" vertex="1" parent="QeHRjrzxPXp_8afaxTIw-6">
          <mxGeometry y="30" width="220" height="90" as="geometry" />
        </mxCell>
        <mxCell id="QeHRjrzxPXp_8afaxTIw-8" value="" style="line;strokeWidth=1;fillColor=none;align=left;verticalAlign=middle;spacingTop=-1;spacingLeft=3;spacingRight=3;rotatable=0;labelPosition=right;points=[];portConstraint=eastwest;strokeColor=inherit;" vertex="1" parent="QeHRjrzxPXp_8afaxTIw-6">
          <mxGeometry y="120" width="220" height="8" as="geometry" />
        </mxCell>
        <mxCell id="QeHRjrzxPXp_8afaxTIw-9" value="+ tarefa(in nome: string, in descricao: string, in data: string, in hora: string, in prioridade: int):&amp;nbsp;" style="text;strokeColor=none;fillColor=none;align=left;verticalAlign=top;spacingLeft=4;spacingRight=4;overflow=hidden;rotatable=0;points=[[0,0.5],[1,0.5]];portConstraint=eastwest;whiteSpace=wrap;html=1;" vertex="1" parent="QeHRjrzxPXp_8afaxTIw-6">
          <mxGeometry y="128" width="220" height="72" as="geometry" />
        </mxCell>
        <mxCell id="QeHRjrzxPXp_8afaxTIw-10" value="gerenciadorDeTarefas&lt;br&gt;" style="swimlane;fontStyle=1;align=center;verticalAlign=top;childLayout=stackLayout;horizontal=1;startSize=26;horizontalStack=0;resizeParent=1;resizeParentMax=0;resizeLast=0;collapsible=1;marginBottom=0;whiteSpace=wrap;html=1;" vertex="1" parent="1">
          <mxGeometry x="480" y="300" width="160" height="86" as="geometry" />
        </mxCell>
        <mxCell id="QeHRjrzxPXp_8afaxTIw-11" value="- quadro: quadroKaban" style="text;strokeColor=none;fillColor=none;align=left;verticalAlign=top;spacingLeft=4;spacingRight=4;overflow=hidden;rotatable=0;points=[[0,0.5],[1,0.5]];portConstraint=eastwest;whiteSpace=wrap;html=1;" vertex="1" parent="QeHRjrzxPXp_8afaxTIw-10">
          <mxGeometry y="26" width="160" height="26" as="geometry" />
        </mxCell>
        <mxCell id="QeHRjrzxPXp_8afaxTIw-12" value="" style="line;strokeWidth=1;fillColor=none;align=left;verticalAlign=middle;spacingTop=-1;spacingLeft=3;spacingRight=3;rotatable=0;labelPosition=right;points=[];portConstraint=eastwest;strokeColor=inherit;" vertex="1" parent="QeHRjrzxPXp_8afaxTIw-10">
          <mxGeometry y="52" width="160" height="8" as="geometry" />
        </mxCell>
        <mxCell id="QeHRjrzxPXp_8afaxTIw-13" value="+ TaskManager()" style="text;strokeColor=none;fillColor=none;align=left;verticalAlign=top;spacingLeft=4;spacingRight=4;overflow=hidden;rotatable=0;points=[[0,0.5],[1,0.5]];portConstraint=eastwest;whiteSpace=wrap;html=1;" vertex="1" parent="QeHRjrzxPXp_8afaxTIw-10">
          <mxGeometry y="60" width="160" height="26" as="geometry" />
        </mxCell>
        <mxCell id="QeHRjrzxPXp_8afaxTIw-24" value="Use" style="endArrow=open;endSize=12;dashed=1;html=1;rounded=0;entryX=-0.012;entryY=0.793;entryDx=0;entryDy=0;entryPerimeter=0;exitX=0.997;exitY=0.604;exitDx=0;exitDy=0;exitPerimeter=0;" edge="1" parent="1" source="QeHRjrzxPXp_8afaxTIw-7" target="QeHRjrzxPXp_8afaxTIw-3">
          <mxGeometry width="160" relative="1" as="geometry">
            <mxPoint x="280" y="130" as="sourcePoint" />
            <mxPoint x="440" y="130" as="targetPoint" />
            <Array as="points" />
          </mxGeometry>
        </mxCell>
        <mxCell id="QeHRjrzxPXp_8afaxTIw-25" value="Use" style="endArrow=open;endSize=12;dashed=1;html=1;rounded=0;exitX=0.214;exitY=0.924;exitDx=0;exitDy=0;exitPerimeter=0;entryX=0.334;entryY=0.022;entryDx=0;entryDy=0;entryPerimeter=0;" edge="1" parent="1" source="QeHRjrzxPXp_8afaxTIw-5" target="QeHRjrzxPXp_8afaxTIw-10">
          <mxGeometry width="160" relative="1" as="geometry">
            <mxPoint x="310" y="260" as="sourcePoint" />
            <mxPoint x="470" y="260" as="targetPoint" />
          </mxGeometry>
        </mxCell>
      </root>
    </mxGraphModel>
  </diagram>
</mxfile>
